<svg width="582" height="582" viewBox="0 0 582 582" fill="none" xmlns="http://www.w3.org/2000/svg">
<g filter="url(#filter0_d_1001_158)">
<rect x="11" y="6" width="560" height="560" rx="8.48485" fill="#EFF25A"/>
</g>
<g opacity="0.5">
<rect x="379.242" y="31.4546" width="166.303" height="166.303" fill="white"/>
<mask id="mask0_1001_158" style="mask-type:alpha" maskUnits="userSpaceOnUse" x="419" y="72" width="86" height="86">
<rect x="419.969" y="72.1819" width="84.8485" height="84.8485" fill="white"/>
</mask>
<g mask="url(#mask0_1001_158)">
<path fill-rule="evenodd" clip-rule="evenodd" d="M421.495 148.136C419.461 150.171 419.461 153.47 421.495 155.504C423.53 157.539 426.829 157.539 428.863 155.504L462.394 121.974L495.924 155.504C497.959 157.539 501.257 157.539 503.292 155.504C505.327 153.47 505.327 150.171 503.292 148.136L469.762 114.606L503.292 81.0759C505.327 79.0413 505.327 75.7425 503.292 73.7079C501.257 71.6732 497.959 71.6732 495.924 73.7079L462.394 107.238L428.864 73.7079C426.829 71.6732 423.53 71.6732 421.495 73.7079C419.461 75.7425 419.461 79.0413 421.495 81.0759L455.026 114.606L421.495 148.136Z" fill="#707070"/>
</g>
</g>
<path fill-rule="evenodd" clip-rule="evenodd" d="M428.864 416.496C426.829 414.461 423.53 414.461 421.496 416.496C419.461 418.53 419.461 421.829 421.496 423.864L455.026 457.394L421.496 490.924C419.461 492.959 419.461 496.258 421.496 498.292C423.53 500.327 426.829 500.327 428.864 498.292L462.394 464.762L495.924 498.292C497.959 500.327 501.258 500.327 503.292 498.292C505.327 496.258 505.327 492.959 503.292 490.924L469.762 457.394L503.292 423.864C505.327 421.829 505.327 418.53 503.292 416.496C501.258 414.461 497.959 414.461 495.924 416.496L462.394 450.026L428.864 416.496Z" fill="#707070"/>
<g opacity="0.5">
<rect x="36.2422" y="374.455" width="166.303" height="166.303" fill="white"/>
<path fill-rule="evenodd" clip-rule="evenodd" d="M86.0758 416.496C84.0412 414.461 80.7424 414.461 78.7078 416.496C76.6731 418.53 76.6731 421.829 78.7078 423.864L112.238 457.394L78.7078 490.924C76.6731 492.959 76.6731 496.258 78.7078 498.292C80.7424 500.327 84.0412 500.327 86.0758 498.292L119.606 464.762L153.136 498.292C155.171 500.327 158.47 500.327 160.504 498.292C162.539 496.258 162.539 492.959 160.504 490.924L126.974 457.394L160.504 423.864C162.539 421.829 162.539 418.53 160.504 416.496C158.47 414.461 155.171 414.461 153.136 416.496L119.606 450.026L86.0758 416.496Z" fill="#707070"/>
</g>
<mask id="mask1_1001_158" style="mask-type:alpha" maskUnits="userSpaceOnUse" x="248" y="72" width="86" height="86">
<rect x="248.576" y="72.1819" width="84.8485" height="84.8485" fill="white"/>
</mask>
<g mask="url(#mask1_1001_158)">
<path fill-rule="evenodd" clip-rule="evenodd" d="M291 145.122C307.853 145.122 321.516 131.459 321.516 114.606C321.516 97.7528 307.853 84.0904 291 84.0904C274.147 84.0904 260.484 97.7528 260.484 114.606C260.484 131.459 274.147 145.122 291 145.122ZM291 157.03C314.43 157.03 333.424 138.036 333.424 114.606C333.424 91.1759 314.43 72.1819 291 72.1819C267.57 72.1819 248.576 91.1759 248.576 114.606C248.576 138.036 267.57 157.03 291 157.03Z" fill="#707070"/>
</g>
<path fill-rule="evenodd" clip-rule="evenodd" d="M462.394 316.516C479.247 316.516 492.91 302.853 492.91 286C492.91 269.147 479.247 255.484 462.394 255.484C445.541 255.484 431.878 269.147 431.878 286C431.878 302.853 445.541 316.516 462.394 316.516ZM462.394 328.424C485.824 328.424 504.818 309.43 504.818 286C504.818 262.57 485.824 243.576 462.394 243.576C438.964 243.576 419.97 262.57 419.97 286C419.97 309.43 438.964 328.424 462.394 328.424Z" fill="#707070"/>
<path fill-rule="evenodd" clip-rule="evenodd" d="M119.606 316.516C136.459 316.516 150.122 302.853 150.122 286C150.122 269.147 136.459 255.484 119.606 255.484C102.753 255.484 89.0904 269.147 89.0904 286C89.0904 302.853 102.753 316.516 119.606 316.516ZM119.606 328.424C143.036 328.424 162.03 309.43 162.03 286C162.03 262.57 143.036 243.576 119.606 243.576C96.1758 243.576 77.1818 262.57 77.1818 286C77.1818 309.43 96.1758 328.424 119.606 328.424Z" fill="#707070"/>
<path fill-rule="evenodd" clip-rule="evenodd" d="M291 487.91C307.853 487.91 321.516 474.247 321.516 457.394C321.516 440.541 307.853 426.878 291 426.878C274.147 426.878 260.484 440.541 260.484 457.394C260.484 474.247 274.147 487.91 291 487.91ZM291 499.818C314.43 499.818 333.424 480.824 333.424 457.394C333.424 433.964 314.43 414.97 291 414.97C267.57 414.97 248.576 433.964 248.576 457.394C248.576 480.824 267.57 499.818 291 499.818Z" fill="#707070"/>
<g opacity="0.5">
<rect x="207.242" y="203.454" width="166.303" height="166.303" fill="white"/>
<mask id="mask2_1001_158" style="mask-type:alpha" maskUnits="userSpaceOnUse" x="248" y="243" width="86" height="86">
<rect x="248.576" y="243.576" width="84.8485" height="84.8485" fill="white"/>
</mask>
<g mask="url(#mask2_1001_158)">
<path fill-rule="evenodd" clip-rule="evenodd" d="M257.47 245.102C255.435 243.067 252.136 243.067 250.102 245.102C248.067 247.136 248.067 250.435 250.102 252.47L283.632 286L250.102 319.53C248.067 321.565 248.067 324.864 250.102 326.898C252.136 328.933 255.435 328.933 257.47 326.898L291 293.368L324.53 326.898C326.565 328.933 329.864 328.933 331.898 326.898C333.933 324.864 333.933 321.565 331.898 319.53L298.368 286L331.898 252.47C333.933 250.435 333.933 247.136 331.898 245.102C329.864 243.067 326.565 243.067 324.53 245.102L291 278.632L257.47 245.102Z" fill="#707070"/>
</g>
</g>
<path d="M545.545 200.303L36.4545 200.303" stroke="#9B9B9B" stroke-width="5.09091" stroke-linecap="round" stroke-linejoin="round"/>
<path d="M547.242 371.697L38.1515 371.697" stroke="#9B9B9B" stroke-width="5.09091" stroke-linecap="round" stroke-linejoin="round"/>
<line x1="205.303" y1="34" x2="205.303" y2="538" stroke="#9B9B9B" stroke-width="5.09091" stroke-linecap="round" stroke-linejoin="round"/>
<line x1="376.697" y1="34" x2="376.697" y2="538" stroke="#9B9B9B" stroke-width="5.09091" stroke-linecap="round" stroke-linejoin="round"/>
<defs>
<filter id="filter0_d_1001_158" x="0.818182" y="0.909091" width="580.364" height="580.364" filterUnits="userSpaceOnUse" color-interpolation-filters="sRGB">
<feFlood flood-opacity="0" result="BackgroundImageFix"/>
<feColorMatrix in="SourceAlpha" type="matrix" values="0 0 0 0 0 0 0 0 0 0 0 0 0 0 0 0 0 0 127 0" result="hardAlpha"/>
<feOffset dy="5.09091"/>
<feGaussianBlur stdDeviation="5.09091"/>
<feColorMatrix type="matrix" values="0 0 0 0 0 0 0 0 0 0 0 0 0 0 0 0 0 0 0.15 0"/>
<feBlend mode="normal" in2="BackgroundImageFix" result="effect1_dropShadow_1001_158"/>
<feBlend mode="normal" in="SourceGraphic" in2="effect1_dropShadow_1001_158" result="shape"/>
</filter>
</defs>
</svg>
