<svg width="54" height="55" viewBox="0 0 54 55" fill="none" xmlns="http://www.w3.org/2000/svg">
<path fill-rule="evenodd" clip-rule="evenodd" d="M32.6972 17.9572C37.0581 15.0031 39.0275 15.5658 39.0275 15.5658C40.1943 18.4178 39.569 20.6726 39.3536 21.4491C39.3353 21.5152 39.3199 21.5705 39.3089 21.6147C40.7156 23.1621 41.7003 25.2722 41.7003 27.8043C41.7003 35.1289 38.0489 37.649 33.9227 38.6207C33.0564 38.8247 32.1692 38.9605 31.2905 39.0581C31.8201 39.4994 32.2942 40.2175 32.5741 41.2125C33.1075 43.1093 33.0072 45.2514 32.9109 47.3073C32.8741 48.0932 32.8379 48.8664 32.8379 49.6086C32.8379 50.1713 33.2599 50.8746 34.3853 50.7339C43.5291 47.6391 50 39.0581 50 28.9297C49.8593 16.2691 39.5902 6 26.9297 6C14.2691 6 4 16.2691 4 28.9297C4 39.0581 10.6116 47.6391 19.6147 50.7339C20.7401 50.8746 21.1621 50.1713 21.1621 49.6086V45.6697C20.3088 45.8593 19.545 45.9416 18.8621 45.942C14.4781 45.9447 13.4251 42.5749 13.4251 42.5749L12.775 41.1828C12.3315 40.4239 11.7192 39.5743 10.893 39.1988C8.78287 37.792 11.0336 37.792 11.0336 37.792C11.2851 37.8078 11.5243 37.8498 11.7507 37.9121C11.9379 37.9636 12.1164 38.0289 12.286 38.1047C13.7483 38.7575 14.5505 40.1835 14.5505 40.1835C14.8178 40.6291 15.1032 41.0024 15.4004 41.3135C17.4488 43.4575 20.0564 42.6443 21.1621 42.1529C21.1928 41.8146 21.2505 41.5032 21.3277 41.2172C21.6036 40.1951 22.1291 39.4978 22.5688 39.0581C21.7069 38.9623 20.8368 38.8258 19.9863 38.6215C15.8398 37.6254 12.159 35.0176 12.159 27.6636C12.159 25.1315 13.0031 23.1621 14.5505 21.474L14.5421 21.4492C14.3799 20.9652 13.5887 18.6045 14.8318 15.5658C14.8318 15.5658 16.8012 15.0031 21.1621 17.9572C22.9908 17.3945 24.9602 17.2538 26.9297 17.2538C28.8991 17.2538 30.8685 17.5352 32.6972 17.9572Z" fill="#1E1E1E"/>
</svg>
