<svg width="54" height="55" viewBox="0 0 54 55" fill="none" xmlns="http://www.w3.org/2000/svg">
<path d="M35.2 27C35.2 31.0995 31.0995 35.2 27 35.2C22.9005 35.2 18.8 31.0995 18.8 27C18.8 22.9005 22.9005 18.8 27 18.8C31.0995 18.8 35.2 22.9005 35.2 27Z" fill="#1E1E1E"/>
<path fill-rule="evenodd" clip-rule="evenodd" d="M15.5 3C8.59644 3 3 8.59645 3 15.5V38.5C3 45.4036 8.59644 51 15.5 51H38.5C45.4036 51 51 45.4036 51 38.5V15.5C51 8.59645 45.4036 3 38.5 3H15.5ZM39.5 27C39.5 33.9036 33.9036 39.5 27 39.5C20.0964 39.5 14.5 33.9036 14.5 27C14.5 20.0964 20.0964 14.5 27 14.5C33.9036 14.5 39.5 20.0964 39.5 27ZM44.1 13.2C44.1 15.0225 42.6225 16.5 40.8 16.5C38.9775 16.5 37.5 15.0225 37.5 13.2C37.5 11.3775 38.9775 9.9 40.8 9.9C42.6225 9.9 44.1 11.3775 44.1 13.2Z" fill="#1E1E1E"/>
</svg>
