<svg width="45" height="45" viewBox="0 0 45 45" fill="none" xmlns="http://www.w3.org/2000/svg">
<path fill-rule="evenodd" clip-rule="evenodd" d="M6.04532 0C7.52958 0 8.86947 0.537617 10.0343 1.54752C11.3042 2.60963 11.9614 4.0057 11.9614 5.65775C11.9614 7.2735 11.2618 8.74495 10.0221 9.77818C8.85315 10.7438 7.5172 11.2509 6.04532 11.2509C4.59417 11.2509 3.05495 10.7079 1.93582 9.77524C0.66021 8.71222 0 7.31356 0 5.65775C0 4.04451 0.700842 2.54864 1.95242 1.52671C3.19033 0.536376 4.5619 0 6.04532 0ZM0.193788 15.8549C0.193788 14.3756 1.39302 13.1763 2.87235 13.1763H8.70152C10.1809 13.1763 11.3801 14.3756 11.3801 15.8549V42.2915C11.3801 43.7708 10.1809 44.97 8.70152 44.97H2.87235C1.39302 44.97 0.193788 43.7708 0.193788 42.2915V15.8549Z" fill="#1E1E1E"/>
<path fill-rule="evenodd" clip-rule="evenodd" d="M22.3291 13.2711C23.0684 13.2711 23.9825 13.7075 24.2335 14.066C24.5015 14.4486 24.4766 15.5062 24.4343 16.3878C24.4168 16.7518 24.8481 16.934 25.1163 16.6875C25.4398 16.3901 25.7766 16.1127 26.1251 15.8549C28.5169 14.0858 31.4636 13.2422 34.4974 13.2422C39.881 13.2422 44.9038 17.162 45 22.7757L44.9998 42.2915C44.9998 43.7708 43.8006 44.97 42.3213 44.97H36.4921C35.0128 44.97 33.8136 43.7708 33.8136 42.2915V26.1539C33.7392 24.1544 32.7705 23.072 30.7508 23.072C26.2184 23.072 24.9751 28.8806 24.9751 32.4005V42.2915C24.9751 43.7708 23.7758 44.97 22.2965 44.97H16.4673C14.988 44.97 13.7888 43.7708 13.7888 42.2915V15.8549C13.7888 14.3756 14.988 13.1763 16.4673 13.1763L22.3291 13.2711Z" fill="#1E1E1E"/>
</svg>
