<svg width="41" height="41" viewBox="0 0 41 41" fill="none" xmlns="http://www.w3.org/2000/svg">
<path fill-rule="evenodd" clip-rule="evenodd" d="M20.2502 40.6431C31.341 40.6431 40.3319 31.6522 40.3319 20.5614C40.3319 9.47057 31.341 0.479675 20.2502 0.479675C9.15935 0.479675 0.168457 9.47057 0.168457 20.5614C0.168457 31.6522 9.15935 40.6431 20.2502 40.6431ZM14.8824 37.7166C16.5775 38.2464 18.3805 38.5319 20.2502 38.5319C22.1075 38.5319 23.899 38.2502 25.5843 37.7271V33.3341C25.5848 32.6255 25.4441 31.9238 25.1704 31.2701C24.8967 30.6164 24.4956 30.0238 23.9903 29.5269C29.8893 28.4894 32.3577 24.8956 32.3577 20.6199C32.3577 18.5448 31.6674 16.6244 30.3118 15.0848C31.0777 12.7036 30.2844 10.6684 30.1036 10.2047C30.0948 10.182 30.0874 10.1631 30.0817 10.1481C27.8226 9.94309 25.4797 11.6249 25.0069 11.9847C23.6138 11.6082 22.0323 11.4032 20.2584 11.4032C18.4929 11.4032 16.9157 11.5998 15.5351 11.9722C15.3384 11.8174 12.8115 9.85942 10.3807 10.077C10.3762 10.0887 10.3705 10.103 10.3639 10.1196C10.1894 10.558 9.35347 12.6588 10.1757 15.0974C8.83696 16.6328 8.15502 18.5364 8.15502 20.6073C8.15502 24.8747 10.6067 28.4643 16.4889 29.5186C15.7861 30.2005 15.2757 31.0791 15.0372 32.0623C13.9453 32.3342 11.7906 32.6103 10.6862 30.9745C9.15911 28.7195 7.84125 27.8869 6.54848 28.5522C6.2615 28.8833 6.63265 29.1329 7.16038 29.4878C7.6328 29.8055 8.2307 30.2076 8.59431 30.8281C8.65003 30.9199 8.70253 31.0788 8.76936 31.2811C9.15909 32.4607 10.0361 35.1152 14.8824 34.5474V37.7166Z" fill="#928A97"/>
</svg>
