<svg width="43" height="42" viewBox="0 0 43 42" fill="none" xmlns="http://www.w3.org/2000/svg">
<path d="M21.4914 -0.00215149C10.1343 -0.00215149 0.927734 9.20438 0.927734 20.5615C0.927734 31.9187 10.1343 41.1252 21.4914 41.1252C32.8486 41.1252 42.0551 31.9187 42.0551 20.5615C42.0551 9.20438 32.8486 -0.00215149 21.4914 -0.00215149ZM16.4576 29.0847H12.2935V15.6841H16.4576V29.0847ZM14.3498 14.039C13.0346 14.039 12.1842 13.1072 12.1842 11.9548C12.1842 10.7788 13.0603 9.87484 14.4034 9.87484C15.7464 9.87484 16.569 10.7788 16.5947 11.9548C16.5947 13.1072 15.7464 14.039 14.3498 14.039ZM31.6662 29.0847H27.502V21.6583C27.502 19.9296 26.8979 18.7558 25.3921 18.7558C24.2418 18.7558 23.5585 19.5505 23.2565 20.3152C23.1451 20.5872 23.1172 20.9728 23.1172 21.3562V29.0826H18.9509V19.9575C18.9509 18.2845 18.8974 16.8858 18.8417 15.6819H22.4596L22.6503 17.5434H22.7338C23.2822 16.6694 24.6252 15.3799 26.8722 15.3799C29.6119 15.3799 31.6662 17.2156 31.6662 21.1613V29.0847Z" fill="#928A97"/>
</svg>
