<svg width="180" height="128" viewBox="0 0 180 128" fill="none" xmlns="http://www.w3.org/2000/svg">
<path d="M91.8937 20.6499C92.9083 20.7106 93.9168 20.8498 94.9099 21.0662C96.6092 21.5505 98.3085 21.6355 98.9883 19.8767C99.3536 18.9761 98.6229 17.6336 98.2915 16.0533C98.8013 16.0533 99.8294 15.6795 100.586 15.9938C103.381 17.1578 104.384 15.9938 104.392 13.1305C106.814 12.9436 108.819 12.2808 109.133 9.38355C109.184 8.88227 110.459 8.17705 111.198 8.14306C116.729 7.84569 117.145 7.47178 117.29 2.53537L120.043 4.04775L120.34 0.564181C122.192 -0.285463 123.382 4.56601 125.871 1.75369C128.123 4.1072 129.967 3.94576 135.54 0.827574C134.979 1.75369 134.572 2.42492 134.113 3.16411C136.458 5.14378 137.375 2.01708 139.653 1.7282C134.996 6.29926 137.766 9.91037 139.933 13.8272C140.621 15.0592 140.128 17.1324 139.746 18.7127C139.313 20.48 138.2 22.1113 137.741 23.8531C137.027 26.572 136.628 29.3674 135.931 32.9699L133.382 30.0895C131.813 31.4474 130.327 32.8972 128.93 34.4312C128.42 35.043 128.641 36.258 128.582 36.7083L139.805 37.558L139.89 37.0312C139.565 36.9289 139.25 36.7981 138.947 36.6403C138.626 36.3836 138.327 36.0993 138.055 35.7907L140.749 34.1679C141.896 37.5664 141.598 42.0356 146.458 42.8343C146.934 42.9108 147.495 42.4689 147.996 42.2735C151.165 44.6525 154.19 47.6433 158.447 49.2831C157.274 50.7955 155.796 51.8321 158.107 53.3105C158.804 53.7438 158.566 55.681 158.761 56.9385L160.061 57.5587C160.439 56.9235 160.752 56.2517 160.996 55.5536C161.905 51.8576 164.921 49.8949 167.436 47.4989C168.796 46.2074 169.815 46.114 171.158 47.5753C172.339 48.8668 174.148 49.6315 175.142 50.9739C177.054 53.6248 179.832 56.5052 179.951 59.377C180.113 63.2344 177.623 66.8879 173.919 69.063C170.767 70.9067 167.81 70.3205 165.159 68.0519C162.746 65.9873 160.443 63.8036 157.962 61.5096C159.126 64.5343 156.263 65.5879 154.657 67.4572C154.284 67.899 154.309 68.6807 153.808 68.7571L149.186 71.578C148.659 71.6714 147.631 71.8838 146.586 72.0028C145.541 72.1217 144.241 72.4871 143.23 72.1897C141.387 71.6168 139.612 70.8447 137.936 69.8872C136.993 69.3689 136.364 68.2983 135.455 67.7036C133.178 66.2167 132.227 63.8376 130.961 61.6371C130.765 61.2972 129.975 61.2887 130.247 61.3737C129.397 59.394 128.828 57.9751 128.199 56.4712L125.939 57.6012L125.276 55.7235L120.094 52.8517L116.092 56.0888H118.7C118.7 58.7992 118.7 61.4077 118.7 64.0161C118.787 64.7212 118.738 65.4366 118.556 66.1232C117.63 68.1199 116.618 70.0826 115.505 71.9773C114.392 73.872 113.517 76.2256 110.841 76.6929C110.662 76.6929 110.382 76.7948 110.348 76.9138C109.235 80.1764 105.743 79.8791 103.5 81.4424C103.016 81.7823 102.005 81.3489 101.104 81.264L99.5745 87.2115C97.5948 85.8606 94.9609 85.9031 94.9184 82.9633C94.1216 82.8424 93.319 82.763 92.5139 82.7254C92.4035 82.479 92.0381 81.6038 91.5793 80.5163C88.7839 82.1136 85.7337 82.9123 85.1899 85.6142L78.1718 90.7121L76.2346 90.2193C75.385 91.4258 74.8157 92.8617 73.7621 93.7114C71.1282 95.8355 72.4622 97.4923 73.8301 99.574C74.9431 101.273 75.4444 103.329 76.2176 105.224L74.9601 105.734L71.9609 99.2511C70.2616 98.342 68.8511 97.5518 67.4322 96.9061C66.693 96.5662 65.563 95.9629 65.1382 96.2518C62.0454 98.3504 57.6867 98.376 55.6136 102.199C54.94 103.416 54.0799 104.52 53.0646 105.471C51.4844 106.86 50.4812 108.791 50.2523 110.883C49.5726 115.913 48.3151 120.866 47.2105 125.828C46.9582 126.595 46.5633 127.307 46.0465 127.927C45.9701 128.037 45.1204 127.825 45.1119 127.723C44.937 126.865 44.937 125.981 45.1119 125.123C46.7602 120.577 48.3661 116.066 47.304 111.078C47.2598 110.719 47.2956 110.355 47.4087 110.011C47.5218 109.667 47.7094 109.353 47.9582 109.09C50.6686 106.592 50.6941 103.074 51.5523 99.8883C51.6967 99.336 50.9915 98.5544 50.2948 98.0276C51.2804 93.5925 47.1086 93.1675 44.908 91.0689L41.8832 93.1676C42.1806 91.2134 44.6616 89.5651 42.2231 87.9252C40.7107 86.9057 39.1134 86.0135 37.1932 84.841C37.652 83.2947 36.6409 82.3345 34.2109 82.6319C33.6841 78.8935 32.7155 75.4524 29.113 74.1354C30.1456 73.0755 31.0971 71.9394 31.9593 70.7368C32.1293 70.4564 31.2371 69.5218 30.5064 68.3748C30.9737 64.7893 30.4469 62.8181 26.9124 63.005C28.7816 61.1103 28.6712 60.0142 25.8418 57.5078C25.3575 59.9887 24.9412 62.1044 24.5504 64.118H11.7546V63.9566L20.1577 62.5887C23.2589 62.0704 24.6608 59.1051 24.0916 56.0464C23.6922 53.9223 23.106 52.4693 20.9733 52.3589C19.3026 52.2871 17.6334 52.5322 16.0539 53.0811C10.8455 54.9248 5.71361 56.9555 0.377808 58.6378C1.67728 58.0729 2.94768 57.4434 4.18424 56.7516C7.12404 54.8908 10.1318 53.0811 12.8422 50.9485C14.414 49.7165 17.5832 49.1217 19.1976 50.3877C21.7465 52.3674 22.9105 51.934 23.7347 48.9518C23.9131 48.323 24.8902 47.8217 25.5954 47.4394C27.2947 46.5303 29.1045 45.859 30.6933 44.814C31.3985 44.3552 31.6534 43.2166 32.2652 42.1121L26.734 41.6193V41.0075H30.8888C30.0803 39.6152 29.1923 38.2705 28.2294 36.9802C27.1418 35.7057 27.2862 34.8476 28.7476 34.1594C30.9992 33.0888 31.8998 31.4405 31.2966 28.934C31.1776 28.4412 31.7979 27.7615 32.0868 27.1667C32.3077 26.6994 32.7155 26.2576 32.7495 25.7818C32.6814 24.6214 32.873 23.4603 33.3103 22.3832C32.7835 21.627 32.2567 20.8708 31.2456 19.4434L34.7717 20.0467C35.12 18.0585 36.0546 15.9938 33.1318 15.0592C32.97 14.9717 32.8438 14.8305 32.775 14.6599C31.8828 12.8926 30.9907 11.1168 29.9202 8.96722C31.6789 9.95281 33.5737 10.6665 35.069 11.9325C36.9298 13.4534 38.6886 12.4763 40.2604 11.9325C41.0336 11.6521 41.297 9.94431 41.6878 9.09467C42.7669 9.44302 44.1773 10.2927 45.5537 10.2417C47.7118 10.1567 49.802 9.58747 51.9686 10.5136C52.2915 10.6495 53.1666 9.70641 53.6679 9.16264C54.4666 8.313 55.1718 7.39536 55.9195 6.50324C56.5822 7.70123 57.3044 8.87378 57.8652 10.1143C57.9755 10.7267 57.9755 11.354 57.8652 11.9665C60.5246 12.0939 60.0063 14.0906 59.9638 15.1867C62.1134 17.5062 64.7048 19.2055 65.4355 21.4996C65.8944 22.9015 66.2002 24.6773 67.2198 25.3995C68.5708 26.3596 70.508 26.6315 72.2327 26.8014C72.6066 26.8014 73.3033 25.2635 73.5837 24.3459C74.136 22.5022 75.4784 22.4172 78.6816 24.4139L75.0196 26.589C75.3 27.2687 75.5974 27.9569 75.7843 28.3902C74.9426 28.5434 74.1308 28.8302 73.3798 29.2399C73.1844 29.4098 73.7111 30.4719 73.9066 31.1176C74.6458 30.7947 75.6059 30.6588 76.0902 30.115C77.5261 28.5347 78.7836 26.7929 80.16 25.0171C81.0861 26.4615 81.409 29.4098 83.907 28.6706C84.7566 31.2195 85.4873 33.4712 86.2775 35.7482C86.5154 36.4279 87.2291 37.1246 87.1271 37.7109C86.6088 40.7611 89.2597 40.4723 90.7891 41.2964C91.078 41.4494 91.9276 41.084 92.1571 40.7272C93.3126 38.8834 94.0858 36.7083 95.5556 35.1789C96.2948 34.4058 98.2066 34.7626 100.229 34.5332C100.016 33.6836 100.093 31.7888 99.2856 31.2621C98.3085 30.6163 96.5837 31.1091 94.774 31.1091C96.2863 30.183 98.0366 29.6817 98.4954 28.6281C98.8183 27.872 97.4929 26.3001 96.7197 25.2295C95.8388 24.0511 94.8672 22.9431 93.8139 21.9159C93.2193 21.3968 92.5827 20.9279 91.9107 20.514L91.8937 20.6499Z" fill="white"/>
</svg>
